<svg width="16" height="15" viewBox="0 0 16 15" fill="none" xmlns="http://www.w3.org/2000/svg">
<path d="M14.4956 6.458C14.6614 6.71006 14.75 6.97568 14.75 7.25003C14.75 8.88178 11.616 10.2046 7.75 10.2046C3.88401 10.2046 0.75 8.88178 0.75 7.25003C0.75 6.97568 0.838595 6.71006 1.00437 6.458M14.4956 10.0034C14.6614 10.2555 14.75 10.5211 14.75 10.7955C14.75 12.4272 11.616 13.75 7.75 13.75C3.88401 13.75 0.75 12.4272 0.75 10.7955C0.75 10.5211 0.838595 10.2555 1.00437 10.0034M14.75 3.70454C14.75 5.33629 11.616 6.65908 7.75 6.65908C3.88401 6.65908 0.75 5.33629 0.75 3.70454C0.75 2.07279 3.88401 0.75 7.75 0.75C11.616 0.75 14.75 2.07279 14.75 3.70454Z" stroke="white" stroke-opacity="0.7" stroke-width="1.5" stroke-linecap="round"/>
</svg>
